<?xml version="1.0" encoding="utf-8"?>
<!-- Generator: Adobe Illustrator 22.0.1, SVG Export Plug-In . SVG Version: 6.00 Build 0)  -->
<svg version="1.1" id="Layer_1" xmlns="http://www.w3.org/2000/svg" xmlns:xlink="http://www.w3.org/1999/xlink" x="0px" y="0px"
	 viewBox="0 0 374.3 141.3" style="enable-background:new 0 0 374.3 141.3;" xml:space="preserve">
<style type="text/css">
	.st0{fill:#00723F;}
</style>
<g>
	<path d="M38.2,140.2c0,0.3-0.2,0.4-0.5,0.4h-4c-0.3,0-0.4-0.2-0.4-0.5l-3.7-27.7h-0.8l-5.1,27.7c0,0.3-0.2,0.5-0.5,0.5h-7.8
		c-0.3,0-0.4-0.1-0.4-0.5l-5.2-27.7H9l-3.7,27.7c0,0.3-0.2,0.5-0.4,0.5H0.6c-0.2,0-0.4-0.2-0.4-0.4v-0.1l4-30.9
		c0-0.4,0.2-0.5,0.5-0.5h8.9c0.3,0,0.4,0.1,0.5,0.5l5.2,27.5h0.4l5.1-27.6c0-0.2,0.1-0.4,0.4-0.4h8.6c0.2,0,0.4,0.1,0.4,0.5
		L38.2,140.2L38.2,140.2"/>
	<path d="M64.8,140.2c0,0.3-0.2,0.4-0.4,0.4H43.6c-0.3,0-0.4-0.2-0.4-0.5v-30.9c0-0.4,0.1-0.5,0.4-0.5h20.5c0.4,0,0.5,0.3,0.5,0.5
		v2.7c0,0.3-0.1,0.5-0.5,0.5H48.5c-0.3,0-0.5,0.1-0.5,0.5v9c0,0.2,0.2,0.4,0.5,0.4h11.2c0.4,0,0.5,0.2,0.5,0.5v2.8
		c0,0.3-0.2,0.5-0.5,0.5H48.5c-0.3,0-0.5,0.2-0.5,0.5v9.8c0,0.3,0.1,0.5,0.5,0.5h16.4c0.3,0,0.4,0.1,0.4,0.5L64.8,140.2"/>
	<path d="M92.1,111.9c0,0.3-0.1,0.5-0.5,0.5h-9.8V140c0,0.4-0.1,0.6-0.5,0.6h-3.5c-0.3,0-0.5-0.2-0.5-0.6v-27.6h-9.5
		c-0.3,0-0.5-0.2-0.5-0.5v-2.7c0-0.4,0.1-0.5,0.5-0.5h24.1c0.2,0,0.5,0.1,0.5,0.3v0.1L92.1,111.9"/>
	<path d="M108,112.3c-5.7,0-9.9,2.9-9.9,12.1c0,9.9,4.1,12.3,9.9,12.3c5.8,0,9.9-2.4,9.9-12.3C117.9,115.2,113.6,112.3,108,112.3
		L108,112.3z M108,140.9c-8.7,0-15.2-4.5-15.2-16.6c0-10.5,6.2-15.8,15.2-15.8c9.1,0,15.2,5.3,15.2,15.8
		C123.2,136.4,116.6,140.9,108,140.9"/>
	<path d="M140.2,112.4h-6.7c-0.4,0-0.5,0.2-0.5,0.5v23.4c0,0.3,0.1,0.5,0.5,0.5h6.8c5.5,0,9.9-3.5,9.9-12.3
		C150.2,115.6,146.2,112.4,140.2,112.4L140.2,112.4z M139.3,140.6h-10.8c-0.3,0-0.4-0.1-0.4-0.5v-30.9c0-0.4,0.1-0.5,0.4-0.5
		c7.7,0,6.4,0,11.5,0c8.3,0,15.3,3.3,15.3,15C155.2,136.6,148.2,140.6,139.3,140.6"/>
	<path d="M181.7,140.2c0,0.3-0.2,0.4-0.4,0.4h-20.9c-0.3,0-0.4-0.2-0.4-0.5v-30.9c0-0.4,0.1-0.5,0.4-0.5h20.5c0.4,0,0.5,0.3,0.5,0.5
		v2.7c0,0.3-0.1,0.5-0.5,0.5h-15.6c-0.3,0-0.5,0.1-0.5,0.5v9c0,0.2,0.2,0.4,0.5,0.4h11.2c0.4,0,0.5,0.2,0.5,0.5v2.8
		c0,0.3-0.2,0.5-0.5,0.5h-11.2c-0.3,0-0.5,0.2-0.5,0.5v9.8c0,0.3,0.1,0.5,0.5,0.5h16.4c0.3,0,0.4,0.1,0.4,0.5L181.7,140.2"/>
	<path d="M208.5,139.5c0,0.4-0.1,0.5-0.5,0.6c-2.4,0.4-4.9,0.9-7.6,0.9c-9.8,0-16.8-4.2-16.8-16.7c0-11.8,7.6-15.8,16.5-15.8
		c2.2,0,5.2,0.3,7.8,0.6c0.2,0,0.4,0.2,0.4,0.5c0,0,0,0.1,0,0.2l-0.4,2.6c-0.1,0.4-0.3,0.4-0.7,0.4c-2.2-0.1-4.6-0.3-6.8-0.3
		c-6.7,0-11.6,2.4-11.6,11.9c0,9.6,4.4,12.4,11.9,12.4c2.5,0,4.4-0.2,7.5-0.4c0.4,0,0.5,0.1,0.5,0.5V139.5"/>
	<path d="M234,140.2c0,0.3-0.2,0.4-0.4,0.4h-20.9c-0.3,0-0.4-0.2-0.4-0.5v-30.9c0-0.4,0.1-0.5,0.4-0.5h20.5c0.4,0,0.5,0.3,0.5,0.5
		v2.7c0,0.3-0.1,0.5-0.5,0.5h-15.6c-0.3,0-0.5,0.1-0.5,0.5v9c0,0.2,0.2,0.4,0.5,0.4h11.2c0.4,0,0.5,0.2,0.5,0.5v2.8
		c0,0.3-0.2,0.5-0.5,0.5h-11.2c-0.3,0-0.5,0.2-0.5,0.5v9.8c0,0.3,0.1,0.5,0.5,0.5h16.4c0.3,0,0.4,0.1,0.4,0.5L234,140.2"/>
	<path d="M264.8,140c0,0.3-0.1,0.6-0.5,0.6h-7.8c-0.4,0-0.6-0.1-0.7-0.5L244,112.4h-0.6v27.7c0,0.3-0.1,0.5-0.5,0.5H239
		c-0.4,0-0.6-0.1-0.6-0.6v-30.9c0-0.4,0.1-0.5,0.5-0.5h7.8c0.4,0,0.6,0,0.7,0.4l11.7,27.6h0.6v-27.5c0-0.3,0.1-0.5,0.5-0.5h4
		c0.4,0,0.5,0.2,0.5,0.5V140"/>
	<path d="M292.7,111.9c0,0.3-0.1,0.5-0.5,0.5h-9.8V140c0,0.4-0.1,0.6-0.5,0.6h-3.5c-0.3,0-0.5-0.2-0.5-0.6v-27.6h-9.5
		c-0.3,0-0.5-0.2-0.5-0.5v-2.7c0-0.4,0.1-0.5,0.5-0.5h24.1c0.2,0,0.5,0.1,0.5,0.3v0.1L292.7,111.9"/>
	<path d="M307.4,112.4h-5.7c-0.2,0-0.4,0.2-0.4,0.4v12.9c0,0.3,0.1,0.4,0.4,0.4h5.3c4.6,0,7.4-1.9,7.4-7.1
		C314.4,114.2,311.8,112.4,307.4,112.4L307.4,112.4z M320.5,140.2c0,0.2-0.1,0.3-0.3,0.3h-4.8c-0.4,0-0.5-0.1-0.7-0.4l-6.6-10.1
		c-0.1-0.1-0.2-0.3-0.5-0.3h-5.8c-0.3,0-0.4,0.1-0.4,0.4v10c0,0.3-0.1,0.5-0.4,0.5h-4.1c-0.3,0-0.4-0.1-0.4-0.5v-30.9
		c0-0.4,0.2-0.5,0.4-0.5c0,0,7.2,0,11.4,0c6.1,0,11.3,2.4,11.3,10c0,5.6-2.8,8.8-6.3,10.2c1.7,2.7,7.2,11.2,7.2,11.2
		C320.5,140.1,320.5,140.2,320.5,140.2"/>
	<path d="M346.5,140.2c0,0.3-0.2,0.4-0.4,0.4h-20.9c-0.3,0-0.4-0.2-0.4-0.5v-30.9c0-0.4,0.1-0.5,0.4-0.5h20.5c0.4,0,0.5,0.3,0.5,0.5
		v2.7c0,0.3-0.1,0.5-0.5,0.5h-15.6c-0.3,0-0.5,0.1-0.5,0.5v9c0,0.2,0.2,0.4,0.5,0.4h11.2c0.4,0,0.5,0.2,0.5,0.5v2.8
		c0,0.3-0.2,0.5-0.5,0.5h-11.2c-0.3,0-0.5,0.2-0.5,0.5v9.8c0,0.3,0.1,0.5,0.5,0.5h16.4c0.3,0,0.4,0.1,0.4,0.5L346.5,140.2"/>
	<path d="M373.8,111.9c0,0.3-0.1,0.5-0.5,0.5h-9.8V140c0,0.4-0.1,0.6-0.5,0.6h-3.5c-0.3,0-0.5-0.2-0.5-0.6v-27.6h-9.5
		c-0.3,0-0.5-0.2-0.5-0.5v-2.7c0-0.4,0.1-0.5,0.5-0.5h24.1c0.2,0,0.5,0.1,0.5,0.3v0.1L373.8,111.9"/>
</g>
<g>
	<path class="st0" d="M208,23c-0.8-0.2-1.7-0.4-2.6-0.6c-1.8-10.6-9.9-19.6-21.1-21.8c-14.5-2.9-28.5,6.5-31.4,20.9
		c0,0.2-0.1,0.4-0.1,0.6c-9.9,1.9-18.3,9.5-20.8,19.9c-3.5,14.3,5.3,28.8,19.7,32.3c0.5,0.1,1,0.2,1.5,0.3c1.9,10,9.5,18.4,20,20.9
		c14.3,3.4,28.8-5.4,32.2-19.8c0.1-0.3,0.1-0.6,0.2-0.9c9.4-1.8,17.5-8.7,20.5-18.6C230.1,42.1,222.1,27.2,208,23z M211.7,52
		c-3.3,11.1-15,17.4-26.1,14.1c-0.3-0.1-0.6-0.2-0.9-0.3l3.5,6.7c1.5,0.7,3,1.3,4.5,1.7c1.3,0.4,2.6,0.7,3.9,0.9
		c-5,5.2-12.5,7.8-20,6c-11.2-2.7-18.2-14-15.5-25.2c0.1-0.3,0.2-0.6,0.2-0.9l-6.5,3.8c-0.6,1.6-1.1,3.1-1.5,4.6
		c-0.2,0.9-0.4,1.8-0.5,2.8c-5.6-5-8.3-12.8-6.4-20.6c1.4-5.9,5.3-10.6,10.2-13.3l0.1,0.1c0,0,0-0.1,0-0.1c4.4-2.4,9.7-3.3,15-2
		c0.3,0.1,0.6,0.2,0.9,0.2l-3.8-6.5c-1.6-0.6-3.1-1.1-4.6-1.5c-0.9-0.2-1.7-0.4-2.6-0.5c4.8-5.4,12.2-8.2,19.8-6.7
		c11.3,2.3,18.7,13.3,16.4,24.6c-0.1,0.3-0.1,0.6-0.2,0.9l6.4-4.1c0.6-1.6,1-3.1,1.3-4.6c0.1-0.5,0.2-1.1,0.3-1.6
		C211.4,35.6,214.1,43.9,211.7,52z"/>
	<path class="st0" d="M183.4,41.9c-3.2-2.3-7.7-1.5-9.9,1.7c-2.3,3.2-1.5,7.7,1.7,9.9c3.2,2.3,7.7,1.5,9.9-1.7
		C187.4,48.6,186.6,44.1,183.4,41.9z"/>
</g>
</svg>
